<?xml version="1.0" standalone="no"?>
<!DOCTYPE svg PUBLIC "-//W3C//DTD SVG 20010904//EN"
 "http://www.w3.org/TR/2001/REC-SVG-20010904/DTD/svg10.dtd">
<svg version="1.0" xmlns="http://www.w3.org/2000/svg"
 width="500.000000pt" height="500.000000pt" viewBox="0 0 500.000000 500.000000"
 preserveAspectRatio="xMidYMid meet">
<metadata>
Created by potrace 1.14, written by Peter Selinger 2001-2017
</metadata>
<g transform="translate(0.000000,500.000000) scale(0.100000,-0.100000)"
fill="#000000" stroke="none">
<path d="M2345 4479 c-598 -31 -1190 -249 -1625 -597 -361 -290 -599 -659
-692 -1074 -20 -91 -23 -129 -23 -323 0 -194 3 -232 23 -325 127 -567 506
-1029 1092 -1334 447 -231 959 -335 1514 -306 595 31 1145 223 1586 553 118
88 312 276 395 382 264 337 385 673 385 1065 0 168 -13 271 -56 427 -155 575
-643 1074 -1304 1336 -396 157 -818 221 -1295 196z m-71 -353 c34 -20 53 -40
67 -69 24 -54 24 -93 -2 -170 -28 -84 -151 -334 -243 -493 -42 -72 -76 -136
-76 -142 0 -6 14 -27 30 -46 l30 -34 78 21 c62 17 105 21 222 21 130 0 155 -3
235 -28 157 -48 508 -244 885 -495 197 -132 278 -178 503 -289 147 -73 267
-137 267 -143 0 -6 -22 -8 -57 -4 -32 3 -112 10 -178 15 -294 26 -609 77 -830
135 -136 35 -506 162 -704 241 -279 112 -441 214 -478 302 -18 44 -5 65 58 98
58 29 186 64 235 64 36 0 53 15 35 33 -18 18 -150 11 -226 -13 -120 -38 -175
-81 -175 -138 0 -156 237 -304 816 -511 94 -33 210 -83 258 -110 116 -65 316
-144 457 -181 150 -38 282 -56 524 -70 110 -7 202 -14 203 -15 7 -6 -157 -54
-218 -64 -69 -11 -110 -6 -290 38 -143 35 -242 40 -367 16 -125 -24 -156 -21
-202 20 -34 31 -42 34 -66 25 -20 -8 -25 -15 -20 -28 55 -130 73 -309 35 -350
-12 -12 -26 -22 -32 -22 -16 0 -48 31 -48 47 0 23 -195 207 -316 298 -63 48
-208 144 -322 213 -281 171 -389 249 -512 372 -140 140 -165 188 -165 320 0
121 19 160 148 310 21 24 58 74 82 110 50 76 199 340 194 344 -2 2 -29 11 -59
21 -92 30 -126 51 -145 91 -36 76 -14 173 53 237 46 44 95 58 188 54 67 -3 89
-8 128 -31z m-444 -214 c0 -4 -39 -24 -87 -45 -100 -42 -220 -116 -290 -178
l-48 -43 50 52 c102 108 375 263 375 214z m708 -1802 c65 -44 127 -88 140 -98
l23 -18 -41 -87 c-25 -55 -40 -102 -40 -127 0 -32 -5 -43 -26 -57 -25 -16 -27
-16 -44 7 -10 14 -44 115 -76 225 -72 253 -68 235 -59 235 4 0 59 -36 123 -80z"/>
<path d="M2005 4045 c-49 -49 -16 -125 55 -125 44 0 80 35 80 77 0 34 -42 73
-80 73 -19 0 -40 -9 -55 -25z m83 -51 c4 -26 -20 -37 -44 -20 -24 18 -11 48
18 44 14 -2 24 -11 26 -24z"/>
</g>
</svg>
